<svg id="Layer_1" data-name="Layer 1" xmlns="http://www.w3.org/2000/svg" viewBox="0 0 341.31 366.55"><defs><style>.cls-1{fill:none;}.cls-2{fill:#f5be47;}.cls-3{fill:#f36729;}.cls-4{fill:gray;}.cls-5{fill:#3da141;}.cls-6{fill:#aae33f;}.cls-7{fill:#c70977;}.cls-8{fill:#331e47;}.cls-9{fill:#fff;}.cls-10{fill:#29abe2;}.cls-10,.cls-11{stroke:#fff;stroke-miterlimit:10;stroke-width:5px;}.cls-11{fill:#0071bc;}.cls-12{fill:#46cce5;}.cls-13{fill:#401a49;}.cls-14{fill:#cf0678;}.cls-15{fill:#99cc49;}.cls-16{fill:#b42332;}.cls-17{fill:#574583;}.cls-18{fill:#274488;}.cls-19{fill:#4477b8;}.cls-20{fill:#4eb8e0;}.cls-21{fill:#f9bc47;}.cls-22{fill:#ea6c20;}.cls-23{fill:#fc6329;}.cls-24{fill:#e9c148;}.cls-25{fill:#226c47;}.cls-26{fill:#93cc47;}.cls-27{fill:#93cc49;}</style></defs><title>chota badaa</title><path class="cls-1" d="M924.25,584.62a2.54,2.54,0,0,0-2.62-2.44,2.48,2.48,0,0,0-2.42,2.58,2.54,2.54,0,0,0,2.62,2.44A2.46,2.46,0,0,0,924.25,584.62Z" transform="translate(-808.4 -397.28)"/><circle class="cls-2" cx="260.55" cy="95.14" r="25.04"/><path class="cls-2" d="M1140.78,528.93" transform="translate(-808.4 -397.28)"/><polygon class="cls-2" points="228.8 97.41 228.8 91.18 179.8 87.66 179.8 99.58 228.8 97.41"/><polygon class="cls-2" points="234.78 113.09 231.67 107.7 187.47 129.15 193.43 139.46 234.78 113.09"/><polygon class="cls-3" points="247.88 121.77 242.49 118.66 214.94 159.34 225.25 165.29 247.88 121.77"/><polygon class="cls-2" points="263.61 124.64 257.39 124.64 253.87 173.65 265.78 173.65 263.61 124.64"/><polygon class="cls-3" points="228.8 91.35 228.8 97.57 179.8 101.09 179.8 89.18 228.8 91.35"/><polygon class="cls-2" points="234.78 75.67 231.67 81.06 187.47 59.61 193.43 49.29 234.78 75.67"/><polygon class="cls-3" points="247.88 66.98 242.49 70.1 214.94 29.42 225.25 23.46 247.88 66.98"/><polygon class="cls-2" points="263.61 64.11 257.39 64.11 253.87 15.11 265.78 15.11 263.61 64.11"/><polygon class="cls-2" points="292.31 98.17 292.31 91.94 341.31 88.42 341.31 100.33 292.31 98.17"/><polygon class="cls-2" points="286.32 113.85 289.44 108.45 333.63 129.91 327.68 140.22 286.32 113.85"/><polygon class="cls-3" points="273.23 122.53 278.62 119.42 306.17 160.09 295.85 166.05 273.23 122.53"/><polygon class="cls-2" points="257.49 125.4 263.72 125.4 267.24 174.4 255.33 174.4 257.49 125.4"/><polygon class="cls-3" points="292.31 92.11 292.31 98.33 341.31 101.85 341.31 89.94 292.31 92.11"/><polygon class="cls-2" points="286.32 76.43 289.44 81.82 333.63 60.37 327.68 50.05 286.32 76.43"/><polygon class="cls-3" points="273.23 67.74 278.62 70.86 306.17 30.18 295.85 24.22 273.23 67.74"/><polygon class="cls-2" points="257.49 64.87 263.72 64.87 267.24 15.87 255.33 15.87 257.49 64.87"/><path class="cls-4" d="M922.24,579.35a2.59,2.59,0,0,0-.56-.05" transform="translate(-808.4 -397.28)"/><path class="cls-4" d="M921.47,579.3a1.13,1.13,0,0,0-.18,0" transform="translate(-808.4 -397.28)"/><line class="cls-4" x1="112.89" y1="182.05" x2="112.55" y2="182.04"/><path class="cls-5" d="M917.16,437.41c-11.36-.32-22.25,6-29.18,16.59-.11.2-.23.39-.34.58l-.46.71c.26-.44.53-.87.8-1.29a5.22,5.22,0,0,0,.76-2.57c0-1.22-.76-2.62-1.79-2.83a3,3,0,0,0,3.46-2.31,5.13,5.13,0,0,0-1.63-4.87,4.14,4.14,0,0,0,3-3.42,3.33,3.33,0,0,0-.17-2c-.31-.64-1-1.12-1.51-.93a8.9,8.9,0,0,0,2.41-1.54,4,4,0,0,0,1.21-2.83,3.29,3.29,0,0,0-1.56-2.87,3,3,0,0,0,2.83-1.73,5,5,0,0,0-.06-4,14.69,14.69,0,0,0,2-8.54,16.91,16.91,0,0,0-6.83,5.74c-4.62,6-7.39,14-8.1,22.54-6-14.53-17.19-26.2-29.92-30.85a44.55,44.55,0,0,0,2.46,8.8,8.37,8.37,0,0,0,2.23,3.55,2.09,2.09,0,0,0,3.21-.36,5.87,5.87,0,0,0,.46,6,3.74,3.74,0,0,0,4.9,1.21,7.93,7.93,0,0,0,1.62,6.12,3,3,0,0,0,1.84,1.16,1.39,1.39,0,0,0,1.46-1.29,19.51,19.51,0,0,0,.27,4.11,6,6,0,0,0,1.89,3.46,2.29,2.29,0,0,0,3.15,0,6.06,6.06,0,0,0,.25,4.77,4.63,4.63,0,0,0,3.46,2.64,18.72,18.72,0,0,0,3.39,5.55.67.67,0,0,1,.14-.09c0,.1,0,.21,0,.31-.06-.07-.13-.14-.19-.22a5.31,5.31,0,0,0-1.69,1.77c.32.37.62.74.91,1.12.21,0,.42.1.64.16-.07.14-.16.27-.24.4-.13-.2-.26-.38-.4-.56a9.11,9.11,0,0,0-1.36-.2,7.13,7.13,0,0,1,.45-.92,31.5,31.5,0,0,0-5.16-4.65,42.13,42.13,0,0,0-16.45-7.37l-.37-.08a32.65,32.65,0,0,0-19,1.75,32.68,32.68,0,0,0,5.64,4.47,5.56,5.56,0,0,0,3,1.1,1.83,1.83,0,0,0,1.74-2.09,4.58,4.58,0,0,0,.52,1.55c-4.66,6.55-7,15.43-6.72,25-5.19-8.63-13.38-15-22.65-17.13a29.13,29.13,0,0,0,1.92,6.76,5.33,5.33,0,0,0,1.83,2.6,2,2,0,0,0,2.78-.57,4.19,4.19,0,0,0,.24,4.69,3.21,3.21,0,0,0,4.2.53,5.28,5.28,0,0,0,1.25,4.69,2.2,2.2,0,0,0,1.56.76,1.38,1.38,0,0,0,1.28-1.16,12.91,12.91,0,0,0,.14,3.23,3.92,3.92,0,0,0,1.55,2.58,2.15,2.15,0,0,0,2.7-.32,4.41,4.41,0,0,0,.11,3.76,3.34,3.34,0,0,0,2.91,1.78,12.67,12.67,0,0,0,1,1.86,1.92,1.92,0,0,0-.53.06,3,3,0,0,0-.72.24,18.17,18.17,0,0,0-5.47-4.05c-9.82-5-21.32-3.08-29.76,4.95a19.75,19.75,0,0,0,5,2.87,3.38,3.38,0,0,0,2.56.21,2.44,2.44,0,0,0,1.24-2.61c.35,1.65,1.61,2.88,2.87,2.84s2.44-1.41,2.66-3.09a3.62,3.62,0,0,0,3.45,2.05,1.73,1.73,0,0,0,1.36-2.59,10.47,10.47,0,0,0,2,2,2.47,2.47,0,0,0,2.37.42,2.54,2.54,0,0,0,1.34-2.43,3.46,3.46,0,0,0,2.26,2.39,2.58,2.58,0,0,0,2.67-1.22,7.36,7.36,0,0,0,3.49.45,5.9,5.9,0,0,0,.94,5.8c-.56.28-1.11.59-1.64.91-9.5,5.78-15.93,17.81-16.62,31.14a18.42,18.42,0,0,0,5-2.72,4.71,4.71,0,0,0,1.81-2.23,2.72,2.72,0,0,0-.8-3,2.62,2.62,0,0,0,3.65-.73,4.53,4.53,0,0,0-.12-4.59,3.46,3.46,0,0,0,3.51-1.81,2.86,2.86,0,0,0,.4-1.75c-.1-.64-.55-1.26-1.07-1.29a7.54,7.54,0,0,0,2.51-.46,3.17,3.17,0,0,0,1.83-1.92,3.07,3.07,0,0,0-.59-2.92,2.67,2.67,0,0,0,1.66.21,5.22,5.22,0,0,0,.09.66c.49,2.42,2.49,4,4.45,3.64a3.36,3.36,0,0,0,2.33-2c.84,2.26,2.87,3.66,4.87,3.23,2.28-.47,3.66-3.12,3.09-5.92a335.18,335.18,0,0,1,11.82,55.53,48,48,0,0,0-4.9,3c-9.06,6.4-16.31,16-21.46,27.12l44.12-8.58,36.77-7.14c-7.12-10.54-17.78-17.31-28.61-19.08l-.64-.1a321.55,321.55,0,0,1-12.17-72,4.63,4.63,0,0,0,5.13-.56,6.11,6.11,0,0,0,2-3.29,5.33,5.33,0,0,0,5.31,2.32c3-.63,4.78-4.11,4-7.77a7.34,7.34,0,0,0-3-4.7,7.88,7.88,0,0,0,0-2.57,2,2,0,0,0,1.84-1.42,5.89,5.89,0,0,0,1.5,5.82,3.51,3.51,0,0,0,4.92-.06,7.52,7.52,0,0,0,2.65,5.65,2.58,2.58,0,0,0,2,.67,1.52,1.52,0,0,0,1.17-1.66,20.19,20.19,0,0,0,1,4,5.51,5.51,0,0,0,2.44,2.94,2.28,2.28,0,0,0,3-.86,6.14,6.14,0,0,0,1.08,4.69,4.13,4.13,0,0,0,3.78,1.72,16.19,16.19,0,0,0,7.68,6.53,34.62,34.62,0,0,0-4.09-12c-7.52-14.23-20.38-24.35-33.82-26.85a7.38,7.38,0,0,0-.59-1.27,20,20,0,0,0,2.19,0,4.37,4.37,0,0,0,3-1.1,3.16,3.16,0,0,0,.42-3.58,3.41,3.41,0,0,0,4.29,1.67c1.42-.72,2.24-2.82,1.88-4.8a4,4,0,0,0,4.62.47,2.58,2.58,0,0,0,1.2-1.55,2,2,0,0,0-.6-2,10.39,10.39,0,0,0,2.94,1.19,3.08,3.08,0,0,0,2.82-.78,3.34,3.34,0,0,0,.64-3.38,3.48,3.48,0,0,0,3.4,1.46,3.67,3.67,0,0,0,2.56-2.74,10.53,10.53,0,0,0,7.16-3.93A18.28,18.28,0,0,0,917.16,437.41Zm-70.61,65.68a5.45,5.45,0,0,0,.12,1.38,4.25,4.25,0,0,0,.15.59,2.91,2.91,0,0,0-1.79-.23,9.49,9.49,0,0,0,1.52-1.74,5.18,5.18,0,0,1,.16-1.26,3.09,3.09,0,0,0,.81-.41A9.47,9.47,0,0,1,846.55,503.09Zm38-34,.19.05a3.75,3.75,0,0,0-.16.68C884.54,469.61,884.53,469.36,884.51,469.12ZM880,462.66a.86.86,0,0,0,0,.22l-.21-.05Zm-30.64,30.47,0,.52v.08a17.93,17.93,0,0,1-.06,2.43,5.64,5.64,0,0,0-.66-1.72,4.77,4.77,0,0,0-1.92-1.89l-.27.22c0-.14-.08-.27-.11-.4a2.64,2.64,0,0,1,.38.18,16.79,16.79,0,0,0,2.26-2.13,20.53,20.53,0,0,0,1.88-2.44,5.22,5.22,0,0,0,1.08-3.17,3.56,3.56,0,0,0-2.06-3.14,2.8,2.8,0,0,0,3.69-2,5.83,5.83,0,0,0-2-5.25,3.71,3.71,0,0,0,3.12-3.24,3.57,3.57,0,0,0-.27-2.14c-.37-.7-1.09-1.27-1.66-1.15a8,8,0,0,0,2.54-1.33,3.61,3.61,0,0,0,1.21-2.82,4,4,0,0,0-1.81-3.16,2.8,2.8,0,0,0,3-1.51,5,5,0,0,0-.23-4.17c.08-.11.15-.23.22-.34a5.48,5.48,0,0,0,3,1.9,2,2,0,0,0,1.64-.28,1.39,1.39,0,0,0,.25-1.71,15.41,15.41,0,0,0,2.12,2.6,4.09,4.09,0,0,0,2.76,1.23,2,2,0,0,0,1.86-1.83,4.92,4.92,0,0,0,2.41,3.05,3.11,3.11,0,0,0,3.3-.23c.26.15.51.3.78.44-.22.05-.44.09-.66.15-9.72,2.45-17.94,10.93-21.29,21.93a15.33,15.33,0,0,0,2.44-.29A34,34,0,0,0,849.31,493.13Zm23.92-26.9a2.57,2.57,0,0,0,.57.35,7.54,7.54,0,0,0-.26,1.09A2.39,2.39,0,0,0,873.23,466.23Zm-11.59,10.92-.27.18a1.45,1.45,0,0,0-.39-.68A2.26,2.26,0,0,0,861.64,477.15ZM857,497.91a1.33,1.33,0,0,0,0-.2c0,.07,0,.14,0,.2Zm21.91,62.62c-3.22-19.54-11-37.95-18.92-55.95a5.18,5.18,0,0,0,.24-3,5.32,5.32,0,0,0-.36-1.15,3,3,0,0,0,1.71-2,3.19,3.19,0,0,0,2.58,2.25,1.45,1.45,0,0,0,1.18-.44,1.49,1.49,0,0,0,.26-1.48,9.49,9.49,0,0,0,1.36,2,2.11,2.11,0,0,0,1.9.72,2,2,0,0,0,1.4-1.78,3.1,3.1,0,0,0,1.56,2.33,2.11,2.11,0,0,0,2.35-.58,6.53,6.53,0,0,0,2.19.84c-.26,19,3,38.44,6.48,57.48A37.4,37.4,0,0,0,878.94,560.53ZM880.33,476a1,1,0,0,1-.23,0,7,7,0,0,0-1.9,6A119.44,119.44,0,0,0,876.52,498a16.82,16.82,0,0,0-1.6-1.35A21,21,0,0,0,856.14,493a3.21,3.21,0,0,1-1.9.83.53.53,0,0,0-.14-.12,19,19,0,0,1,2-.71,1.57,1.57,0,0,0,.21-.24,3,3,0,0,0,.1-3.12c.85,1.39,2.32,1.94,3.35,1.25s1.52-2.54,1.12-4.24a2.73,2.73,0,0,0,3.53.2,2.28,2.28,0,0,0,.81-1.39,2,2,0,0,0-.58-1.73,7.61,7.61,0,0,0,2.29.91,2.11,2.11,0,0,0,2.09-.81,3.21,3.21,0,0,0,.27-3A2.59,2.59,0,0,0,872,482a3,3,0,0,0,1.78-2.5,7.54,7.54,0,0,0,5-3.45,5.48,5.48,0,0,1-3.13-1.64,13.9,13.9,0,0,0-3.83-.36,19.84,19.84,0,0,0-6.47,1.27,3.8,3.8,0,0,0-.1-2.26,3.19,3.19,0,0,0,3.53-.64,2.28,2.28,0,0,0,.71-1.37,1.31,1.31,0,0,0-.69-1.34,7.49,7.49,0,0,0,2.34.24,2.72,2.72,0,0,0,2-1.15,2.66,2.66,0,0,0,.36-.9,8,8,0,0,0,.1,2.61,7.69,7.69,0,0,0,2,3.9,10.77,10.77,0,0,1,3.3,1.37c0,.09-.11.18-.17.27a4,4,0,0,0,1.34,0l.22-.2a4.61,4.61,0,0,1,2.25-1A4.7,4.7,0,0,1,880.33,476Zm7.23,1.61a6.74,6.74,0,0,1-2.12-2.33,6.2,6.2,0,0,1,2.21,1.88,7.66,7.66,0,0,1,.45.66l.08.14A3.79,3.79,0,0,1,887.56,477.63Zm-.91-21.46c-.33.58-.64,1.17-.94,1.76,0,.19,0,.38,0,.57l-.26-.06c.09-.18.17-.34.27-.51s0-.45,0-.67c0-.45,0-.9-.07-1.34a3.47,3.47,0,0,1,.94.22c.2-.26.39-.53.58-.81C887,455.61,886.81,455.89,886.65,456.17Zm3.74,10c-.2-.36-.39-.73-.58-1.08a4.9,4.9,0,0,1,.92.15A5.72,5.72,0,0,1,890.39,466.16Z" transform="translate(-808.4 -397.28)"/><ellipse class="cls-6" cx="886.34" cy="597.81" rx="38.66" ry="46.54" transform="translate(-608.3 1020.32) rotate(-84.07)"/><rect class="cls-7" x="217.94" y="218.55" width="5.29" height="12.67"/><path class="cls-7" d="M974,504.65l-30.27,9.56-1.05,29.19,33.4-11Zm-25.06,26.82c2-28.89,3.62,0,3.62,0Z" transform="translate(-808.4 -397.28)"/><path class="cls-8" d="M977.1,546.93,941.4,558.6,940.15,587l38-12.11Zm-7.75,23.26c1.94-28.88,3.61,0,3.61,0Z" transform="translate(-808.4 -397.28)"/><path class="cls-9" d="M973,570.19h-3.61C971.29,541.31,973,570.19,973,570.19Z" transform="translate(-808.4 -397.28)"/><path class="cls-7" d="M1069.79,632.8h-52.4V616.28h-8.77l-.21,16.52H965.62l.2-20.48,12.11-16.73h.21c.21,0,11.37,16.73,11.37,16.73h50.42l-12.52-18.06L979.18,594v-4.18L939.1,602l-1.32,18.5h-2.64L928,633H899c-6.26,5.72,0,10.79,0,10.79h15.45c-3.34,7.48,3.55,9.24,3.55,9.24h22.13c-2.09,4.85,2.5,8.37,2.5,8.37h14.2c-1.26,3.52,2.64,5.73,2.64,5.73h48.71c7.73,0,5.43-5.73,5.43-5.73h15c6.44,0,6.91-4.37,6.91-5.62a2.15,2.15,0,0,0,0-.32h3.76c3.3,0,4.38-3.53,4.38-3.53h9.81c8.15,0,6.27-9,6.27-9h10C1078.76,638.3,1069.79,632.8,1069.79,632.8ZM941.16,622.53c5.29-45.17,9.83,0,9.83,0Z" transform="translate(-808.4 -397.28)"/><path class="cls-9" d="M951,622.53h-9.83C946.45,577.36,951,622.53,951,622.53Z" transform="translate(-808.4 -397.28)"/><path class="cls-9" d="M952.53,531.47h-3.62C950.86,502.58,952.53,531.47,952.53,531.47Z" transform="translate(-808.4 -397.28)"/><path class="cls-8" d="M975.91,450l.29-17.91,2.78-.88a33.66,33.66,0,0,0-16.38-6h-.26l-2.73-27.87-3,27.92a38.84,38.84,0,0,0-17.19,6l2.22,1.47,2.23,17.91h-6.12v21.72h2l2.78,8.52V484h3.06l-.41,15.13,28.39-9.25.21-5.88h2.71v-2.93l1.95-7.93,2.79-.59V450ZM945.3,465.28H940V452.62h5.3Zm7.23-2c7.8-57,14.48,0,14.48,0Zm26.17,2h-5.29V452.62h5.29Z" transform="translate(-808.4 -397.28)"/><path class="cls-9" d="M967,463.28H952.53C960.33,406.26,967,463.28,967,463.28Z" transform="translate(-808.4 -397.28)"/><line class="cls-7" x1="154.04" y1="28.92" x2="153.94" y2="27.87"/><path class="cls-7" d="M956.64,425.2c0,.29-.06.59-.09.89" transform="translate(-808.4 -397.28)"/><rect class="cls-9" x="131.6" y="55.34" width="5.3" height="12.66"/><rect class="cls-7" x="188.95" y="218.55" width="5.29" height="12.67"/><rect class="cls-7" x="173.77" y="218.55" width="5.29" height="12.67"/><rect class="cls-9" x="165.01" y="55.34" width="5.29" height="12.66"/><rect class="cls-7" x="160.95" y="218.55" width="5.29" height="12.67"/><path class="cls-10" d="M935.53,674.89c-8-7.55-19-11.95-29.09-16.9-1.92-1-3.84-1.93-5.73-3a22.47,22.47,0,0,1,4.23-8.58,23.4,23.4,0,0,1,22.47-8.09,19.26,19.26,0,0,0-5.1-8.11c6,0,12-.13,17.9.88,9.52,1.62,19.34,7,22.23,16.27a22.86,22.86,0,0,0-26.91,27.48Z" transform="translate(-808.4 -397.28)"/><path class="cls-10" d="M891.71,621.21c-5.16,0-10.35.14-15.49-.27s-10.15-1.42-14.45-4.06-7.66-7.2-7.84-12.25A12.25,12.25,0,0,1,872,593.43a66.73,66.73,0,0,0-18-14.93,68.24,68.24,0,0,1,53,24A12.25,12.25,0,0,0,889,613.66,13.7,13.7,0,0,0,891.71,621.21Z" transform="translate(-808.4 -397.28)"/><path class="cls-11" d="M904.94,646.46a22.47,22.47,0,0,0-4.23,8.58A191.38,191.38,0,0,1,819,569.47a68.09,68.09,0,0,1,35,9,66.73,66.73,0,0,1,18,14.93,12.25,12.25,0,0,0-18.07,11.2c.18,5,3.55,9.59,7.84,12.25s9.41,3.66,14.45,4.06,10.33.25,15.49.27a80.69,80.69,0,0,1,13.46.89c6.28,1.07,12.68,3.78,17.14,8.16a19.26,19.26,0,0,1,5.1,8.11A23.4,23.4,0,0,0,904.94,646.46Z" transform="translate(-808.4 -397.28)"/><polygon class="cls-12" points="319.19 305.71 320.65 316.24 311.08 316.24 311.08 329.22 297.72 316.27 297.72 316.24 297.69 316.24 286.83 305.71 319.19 305.71"/><polygon class="cls-13" points="311.08 342.46 311.08 365.77 297.72 364.39 297.72 350.35 311.08 342.46"/><polygon class="cls-14" points="311.08 329.22 311.08 342.46 297.72 350.35 297.72 316.27 311.08 329.22"/><path class="cls-15" d="M1095.23,703l10.86,10.53H1090q0,7.53,0,15.13t0,15.13a8.44,8.44,0,0,1-1.47,5.27,5.46,5.46,0,0,1-4.59,1.9c-.37,0-.74,0-1.1-.05l5.45-47.91Z" transform="translate(-808.4 -397.28)"/><path class="cls-2" d="M1088.24,703l-5.45,47.91a13.6,13.6,0,0,1-8.15-4.14q-4.32-4.2-4.32-9.12a4.68,4.68,0,0,1,1.77-3.85,6.88,6.88,0,0,1,4.45-1.43V713.52H1066l-.92-6.58,2-4Z" transform="translate(-808.4 -397.28)"/><path class="cls-2" d="M1078.35,683a7,7,0,0,1,2.07,5.06,6.82,6.82,0,0,1-2.07,5,6.92,6.92,0,0,1-5.1,2.08,7.29,7.29,0,0,1-2.12-.3l6.29-12.66A7.82,7.82,0,0,1,1078.35,683Z" transform="translate(-808.4 -397.28)"/><path class="cls-3" d="M1077.42,682.19l-6.29,12.66a6.69,6.69,0,0,1-2.85-1.78,6.91,6.91,0,0,1-2-5,7,7,0,0,1,.08-1.13l6.92-6A6.89,6.89,0,0,1,1077.42,682.19Z" transform="translate(-808.4 -397.28)"/><path class="cls-16" d="M1073.25,680.89l-6.92,6a6.94,6.94,0,0,1,2-3.93A6.61,6.61,0,0,1,1073.25,680.89Z" transform="translate(-808.4 -397.28)"/><polygon class="cls-3" points="258.68 305.71 256.72 309.66 256.17 305.71 258.68 305.71"/><path class="cls-2" d="M1065.12,706.94l.92,6.58h-.37c-.23-1.78-.46-3.54-.68-5.26,0-.28-.08-.55-.11-.83Z" transform="translate(-808.4 -397.28)"/><path class="cls-2" d="M1065.67,713.52h-3.82l3-6.09c0,.28.07.55.11.83C1065.21,710,1065.44,711.74,1065.67,713.52Z" transform="translate(-808.4 -397.28)"/><path class="cls-3" d="M1064.57,703l.55,4-.24.49c-.2-1.46-.39-2.94-.59-4.44Z" transform="translate(-808.4 -397.28)"/><path class="cls-3" d="M1064.88,707.43l-3,6.09h-4.7a19.46,19.46,0,0,1,1.08,4.36c.11.86.19,1.67.24,2.44l-9.1,18.3a21.37,21.37,0,0,1-3,1.57l1.25,2-6,12-7.08-12.37-1.35,0-1.33,0a6.15,6.15,0,0,1-3.67-1.08,4.51,4.51,0,0,1-1.86-2.89,12.82,12.82,0,0,1,3.59-8.5c2.38-2.73,5-4.1,7.81-4.1a3.18,3.18,0,0,1,2.5,1.47,11.9,11.9,0,0,1,1.72,3.11,8.28,8.28,0,0,0,3-3.63,11.18,11.18,0,0,0,1-4.49,15.27,15.27,0,0,0-.69-4.61,8,8,0,0,0-2.07-3.5h-7.4L1047.92,703h16.37C1064.49,704.49,1064.68,706,1064.88,707.43Z" transform="translate(-808.4 -397.28)"/><polygon class="cls-2" points="239.21 344.89 250.82 363.44 238.74 366.55 233.23 356.92 233.23 356.92 239.21 344.89"/><path class="cls-2" d="M1058.47,720.32c0,.58.06,1.13.06,1.66a19.52,19.52,0,0,1-3.23,10.78,19.06,19.06,0,0,1-5.93,5.86Z" transform="translate(-808.4 -397.28)"/><polygon class="cls-16" points="239.52 305.71 227.46 316.24 215.79 316.24 214.32 305.71 239.52 305.71"/><path class="cls-7" d="M1000.42,724a17.65,17.65,0,0,1-.13,2.28l-36-1.07a2.26,2.26,0,0,1,0-.26v-.26l8.32-7.53,14.31-12.95a17.53,17.53,0,0,1,.34,4.07v8.46c2.54-.22,4.45-.34,5.75-.34a24,24,0,0,1,2.94.13,6.74,6.74,0,0,1,2.28.82Q1000.42,718.5,1000.42,724Z" transform="translate(-808.4 -397.28)"/><path class="cls-8" d="M964.24,725.23l36,1.07q-.4,3.44-2.2,4.37a8,8,0,0,1-2.29.74,26.44,26.44,0,0,1-3,.13l-5.62-.35v11.92a10.18,10.18,0,0,0,.09,1.42l-15.11-12.65v-.69l-.7.1Z" transform="translate(-808.4 -397.28)"/><path class="cls-16" d="M996.1,748.46c1.33.76,2,2.68,2,5.79,0,3.63-.81,5.84-2.42,6.65a7.87,7.87,0,0,1-2.29.73,23.22,23.22,0,0,1-2.89.13q-9,0-13.65-4.06T972.18,744V731.88l15.11,12.65a4.42,4.42,0,0,0,.65,2,3.18,3.18,0,0,0,2.76,1,29.73,29.73,0,0,1,3.11.13A6.24,6.24,0,0,1,996.1,748.46Z" transform="translate(-808.4 -397.28)"/><path class="cls-17" d="M986.86,704.23l-14.31,12.95-.37-.42v-8.89a23.38,23.38,0,0,1,.13-2.94,5.53,5.53,0,0,1,.82-2.07c.75-1.44,3-2.16,6.65-2.16q5.88,0,7,3.2A2.66,2.66,0,0,1,986.86,704.23Z" transform="translate(-808.4 -397.28)"/><path class="cls-17" d="M972.55,717.18l-8.32,7.53a21.32,21.32,0,0,1,.43-4.88,4.61,4.61,0,0,1,1.22-2.29,5.32,5.32,0,0,1,3.45-1.12l2.85.34Z" transform="translate(-808.4 -397.28)"/><path class="cls-16" d="M964.24,725.23l7.24,6.06a25.58,25.58,0,0,1-2.84.16,4,4,0,0,1-3.15-1.47C964.68,729,964.26,727.45,964.24,725.23Z" transform="translate(-808.4 -397.28)"/><path class="cls-18" d="M963.38,748.1c1.15.74,1.72,2.79,1.72,6.12,0,3.62-.57,5.84-1.72,6.64q-2.25,1.56-10.7.52-6.64-.86-8.63-4.4c-.06-.1-.11-.21-.16-.31L956.73,740v2.48a9.13,9.13,0,0,0,.52,3.93c.35.55,1.11.82,2.29.82a13.34,13.34,0,0,1,2.37.13A4.36,4.36,0,0,1,963.38,748.1Z" transform="translate(-808.4 -397.28)"/><path class="cls-19" d="M956.73,719.89V740l-12.84,16.67c-1.51-2.84-2.25-7.22-2.25-13.15V711.4Z" transform="translate(-808.4 -397.28)"/><path class="cls-20" d="M956.73,702.54v17.35l-15.09-8.49v-8.94a24.22,24.22,0,0,1,.13-3,8,8,0,0,1,.73-2.29c.8-1.55,3-2.33,6.73-2.33,3.51,0,5.69.78,6.56,2.33a6.77,6.77,0,0,1,.81,2.33A25.43,25.43,0,0,1,956.73,702.54Z" transform="translate(-808.4 -397.28)"/><path class="cls-21" d="M934.71,726.31v28.05a23.4,23.4,0,0,1-.13,2.9,6.18,6.18,0,0,1-.82,2.2q-1.31,2.25-6.66,2.25a11.4,11.4,0,0,1-5.19-.91Z" transform="translate(-808.4 -397.28)"/><path class="cls-22" d="M934.71,723.75v2.56l-15.09,2.87v-5.52a24.44,24.44,0,0,1,.13-3,6.69,6.69,0,0,1,.81-2.28c.75-1.5,3-2.24,6.65-2.24s5.83.77,6.64,2.32a8.29,8.29,0,0,1,.73,2.29A24.44,24.44,0,0,1,934.71,723.75Z" transform="translate(-808.4 -397.28)"/><path class="cls-23" d="M934.71,726.31l-12.8,34.49a3.05,3.05,0,0,1-1.3-1.17,6.8,6.8,0,0,1-.86-3.54,9.59,9.59,0,0,1-1.56,1.73,21.5,21.5,0,0,1-2.34,1.9,11.5,11.5,0,0,1-6.4,1.9,18.61,18.61,0,0,1-9.32-2.33l13.58-12.95a7.06,7.06,0,0,0,3.78-1.92,6.91,6.91,0,0,0,1.93-3.53Z" transform="translate(-808.4 -397.28)"/><path class="cls-24" d="M934.71,726.31l-15.29,14.58a9.07,9.07,0,0,0,.2-1.93v-9.78Z" transform="translate(-808.4 -397.28)"/><path class="cls-24" d="M913.71,746.34l-13.58,12.95A19.73,19.73,0,0,1,895,755a23.78,23.78,0,0,1-5.75-16.14V735l15.23-2.9V739a7,7,0,0,0,7.5,7.54A9.18,9.18,0,0,0,913.71,746.34Z" transform="translate(-808.4 -397.28)"/><path class="cls-22" d="M904.44,723.85v8.23L889.21,735V723.76a24.4,24.4,0,0,1,.13-3,7.71,7.71,0,0,1,.74-2.25q1.2-2.34,6.75-2.34,6,0,7.1,3.3A13.8,13.8,0,0,1,904.44,723.85Z" transform="translate(-808.4 -397.28)"/><path class="cls-25" d="M883.61,708.5a8.25,8.25,0,0,1-1.81,4.8q-3.37,4.66-6,4.66-1.56,0-4.41-1.9-3.63-2.94-9.68-2.93a17,17,0,0,0-6.8,1.45l-5.13-14.23a33.26,33.26,0,0,1,12.53-2.53,33,33,0,0,1,14.61,3.81l2.07,1.21c1,.63,1.84,1.15,2.42,1.55A5.23,5.23,0,0,1,883.61,708.5Z" transform="translate(-808.4 -397.28)"/><path class="cls-26" d="M881.62,747.18a10.07,10.07,0,0,1,1.91,4.84,4.16,4.16,0,0,1-1.17,3,13.8,13.8,0,0,1-2.73,2.17c-1,.63-2,1.24-3,1.81a27.07,27.07,0,0,1-5,2l-5.18-14.37.28-.07a13.24,13.24,0,0,0,3.42-1.39l1.55-1.12c2-1.15,3.35-1.73,4.15-1.73Q878.52,742.34,881.62,747.18Z" transform="translate(-808.4 -397.28)"/><path class="cls-5" d="M866.43,746.65,871.61,761l-.79.25a28.88,28.88,0,0,1-6.91,1.32l-34.66-33.68a31.62,31.62,0,0,1,2.24-11.33,27.82,27.82,0,0,1,5.75-9.08,32.78,32.78,0,0,1,8-6,42.57,42.57,0,0,1,4.49-2.14l5.13,14.23a24,24,0,0,0-4.27,2.43,14.56,14.56,0,0,0-4.32,5.36,18.56,18.56,0,0,0,0,15.65,14.86,14.86,0,0,0,4.41,5.44,18.47,18.47,0,0,0,11,3.81A18,18,0,0,0,866.43,746.65Z" transform="translate(-808.4 -397.28)"/><path class="cls-27" d="M829.25,728.91l34.66,33.68c-.54,0-1.08.06-1.61.06a33.25,33.25,0,0,1-8.3-1.08,35,35,0,0,1-8.63-3.63,35.37,35.37,0,0,1-8-6.22,28.73,28.73,0,0,1-5.84-9.43,33.3,33.3,0,0,1-2.29-12.48C829.24,729.5,829.25,729.21,829.25,728.91Z" transform="translate(-808.4 -397.28)"/></svg>